<?xml version="1.0" encoding="UTF-8"?>
<svg width="291" height="278" viewBox="0 0 291 278" xmlns="http://www.w3.org/2000/svg" role="img" aria-labelledby="title desc">
  <title id="title">John A. Schroeder JAS monogram, variant 3</title>
  <desc id="desc">Vector reproduction of the selected JAS number 3 monogram.</desc>
  <rect width="100%" height="100%" fill="#ffffff"/>
  <path fill="#1B3359" fill-rule="evenodd" d="M 79 86 L 78 86 L 64 100 L 64 101 L 63 102 L 62 102 L 61 103 L 61 104 L 59 106 L 59 208 L 58 209 L 38 189 L 37 189 L 33 193 L 32 193 L 32 194 L 31 195 L 30 195 L 20 205 L 47 232 L 47 233 L 71 257 L 75 253 L 75 252 L 80 247 L 80 246 L 82 244 L 82 243 L 83 242 L 83 93 L 82 92 L 82 90 L 80 88 L 80 87 Z M 191 77 L 191 81 L 190 82 L 190 93 L 191 94 L 191 163 L 199 171 L 199 172 L 224 197 L 205 216 L 204 216 L 198 210 L 197 210 L 192 205 L 191 205 L 191 241 L 192 242 L 192 244 L 193 245 L 193 246 L 194 247 L 194 248 L 196 250 L 196 251 L 198 253 L 198 254 L 201 257 L 221 237 L 221 236 L 236 221 L 236 220 L 251 205 L 251 204 L 258 197 L 250 189 L 250 188 L 230 168 L 230 167 L 214 151 L 214 132 L 215 131 L 253 169 L 255 169 L 271 153 L 212 94 L 211 94 L 205 88 L 204 88 L 201 85 L 200 85 L 197 82 L 196 82 Z M 136 20 L 136 21 L 133 24 L 133 25 L 129 29 L 129 30 L 125 34 L 125 35 L 121 39 L 121 40 L 117 44 L 117 45 L 114 48 L 114 49 L 110 53 L 110 54 L 106 58 L 106 59 L 103 62 L 103 63 L 101 65 L 101 66 L 100 67 L 100 70 L 99 71 L 99 223 L 100 223 L 100 222 L 104 218 L 104 217 L 108 213 L 108 212 L 113 207 L 113 206 L 118 201 L 118 200 L 123 195 L 123 192 L 124 191 L 124 164 L 123 163 L 124 162 L 149 162 L 150 163 L 150 194 L 151 195 L 151 196 L 155 200 L 155 201 L 160 206 L 160 207 L 166 213 L 166 214 L 172 220 L 172 221 L 174 223 L 175 223 L 174 222 L 174 69 L 173 68 L 173 66 L 172 65 L 172 64 L 169 61 L 169 60 L 165 56 L 165 55 L 161 51 L 161 50 L 157 46 L 157 45 L 154 42 L 154 41 L 149 36 L 149 35 L 145 31 L 145 30 L 141 26 L 141 25 L 137 21 L 137 20 Z M 137 62 L 138 63 L 138 64 L 140 66 L 140 67 L 142 69 L 142 70 L 144 72 L 144 73 L 145 74 L 145 75 L 146 76 L 146 77 L 147 78 L 147 79 L 148 80 L 148 81 L 149 82 L 149 85 L 150 86 L 150 135 L 149 136 L 125 136 L 123 134 L 124 133 L 123 132 L 123 107 L 124 106 L 123 105 L 123 89 L 124 88 L 124 83 L 125 82 L 125 80 L 126 79 L 126 78 L 127 77 L 127 76 L 128 75 L 128 74 L 129 73 L 129 72 L 131 70 L 131 69 L 134 66 L 134 65 Z"/>
</svg>
